<?xml version="1.0" encoding="UTF-8"?>
<svg width="127px" height="125px" viewBox="0 0 127 125" version="1.1" xmlns="http://www.w3.org/2000/svg" xmlns:xlink="http://www.w3.org/1999/xlink">
    <title>Group 8</title>
    <defs>
        <polygon id="path-1" points="0 0 46 0 46 32 0 32"></polygon>
    </defs>
    <g id="DESKTOP-DESIGN-960px" stroke="none" stroke-width="1" fill="none" fill-rule="evenodd">
        <g id="Landing" transform="translate(-419.000000, -526.000000)">
            <g id="How-it-works" transform="translate(-18.000000, 426.000000)">
                <g id="Group-8" transform="translate(437.000000, 100.000000)">
                    <g id="Group-7" fill="#00B3CA">
                        <ellipse id="Oval-Copy" cx="63.1493056" cy="62.5588235" rx="62.9826389" ry="61.8137255"></ellipse>
                    </g>
                    <g id="Group-3" transform="translate(41.000000, 47.000000)">
                        <mask id="mask-2" fill="white">
                            <use xlink:href="#path-1"></use>
                        </mask>
                        <g id="Clip-2"></g>
                        <path d="M4.2080335,2.52362919 C6.32445197,4.58160619 8.49569247,6.57788795 10.673425,8.4647341 C13.2500599,10.6982488 15.9226334,12.861989 18.6175684,14.8957286 C19.9369036,15.8909316 21.2894205,16.9111065 22.6628564,17.8453488 C22.9095554,18.0128073 22.9925098,18.0150107 22.9961165,18.0150107 C22.9990019,18.0150107 23.0509385,18.0054626 23.1584186,17.9209989 C23.3892481,17.738851 23.6143069,17.5471551 23.8393657,17.3554592 L26.2392718,15.3437536 L41.1321061,2.88719043 L4.2080335,2.52362919 Z M2.56986501,4.38109665 C2.71341214,12.0974087 2.69682126,19.9077326 2.52081373,27.6269825 C6.69233658,23.5528931 10.7686422,19.2973903 14.6523495,14.9618307 C10.4750559,11.6677454 6.41534111,8.11292433 2.56986501,4.38109665 L2.56986501,4.38109665 Z M30.9186196,14.6548234 C35.3361202,18.8919645 39.5595797,23.420689 43.4887315,28.1344993 L43.234819,4.35392137 L30.9186196,14.6548234 Z M4.44391245,29.2068214 C11.6494013,29.3662007 18.8916785,29.4631504 25.9839166,29.4932636 C27.7021541,29.5006082 29.4196702,29.5042806 31.1379077,29.5042806 C33.0905815,29.5042806 35.0432552,29.4998738 36.9952076,29.4903257 C38.4573686,29.482981 39.9195296,29.4734329 41.3816905,29.460947 C37.5102461,24.841883 33.3524287,20.402029 29.0099478,16.2508205 L25.6319015,19.0763157 C25.5273069,19.1637173 25.4205482,19.2621359 25.3101828,19.3642269 C24.796587,19.8386926 24.183446,20.4042324 23.3899694,20.5489224 C23.2651772,20.5716909 23.1418277,20.5819734 23.0206422,20.5819734 C22.2444778,20.5819734 21.6219593,20.1434965 21.1667923,19.8232688 C19.7659454,18.8390828 18.3362449,17.7917327 16.7969003,16.6217265 L16.6093513,16.4785054 C12.7162666,20.8331612 8.62841946,25.1099635 4.44391245,29.2068214 L4.44391245,29.2068214 Z M31.1227595,32 C28.9774873,32 26.8322152,31.9941243 24.6876643,31.9831073 C16.9426115,31.9412426 9.04174863,31.8222589 1.20436393,31.6276251 C0.876874495,31.619546 0.559483858,31.474856 0.332982358,31.2317473 C0.11008757,30.9930455 -0.0082125764,30.680897 0,30.355528 C0.269504231,20.7347426 0.286816448,10.9751429 0.0545442086,1.34774725 C0.045166758,0.932038835 0.224781005,0.559663981 0.546499696,0.324634488 C0.722507231,0.130735156 1.03052042,0 1.36450193,0 C1.36810864,0 42.2307105,0.40175354 42.3078941,0.402488008 C42.3742576,0.402488008 42.9758571,0.390002066 43.0407779,0.390002066 C43.5810634,0.390002066 44.2071885,0.4406803 44.7561301,0.819665358 C45.6484306,1.43367991 45.6635787,2.47148202 45.6707922,3.02820813 C45.6801696,3.64369162 45.7010885,5.79788382 45.7010885,5.79788382 L45.8915229,23.5617067 C45.898015,24.1808625 45.9203766,24.8080975 45.9427382,25.4382703 C45.9925109,26.8073171 46.0437262,28.2108839 45.9384102,29.5880098 C45.7580746,31.9493218 43.6272293,31.9493218 42.6036445,31.9493218 L42.1564122,31.9500562 C40.2022958,31.9676834 38.2445726,31.9809039 36.2875708,31.988983 C34.5657266,31.9963277 32.8446037,32 31.1227595,32 L31.1227595,32 Z" id="Fill-1" fill="#FEFEFE" mask="url(#mask-2)"></path>
                    </g>
                </g>
            </g>
        </g>
    </g>
</svg>