<?xml version="1.0" encoding="UTF-8"?>
<svg width="126px" height="124px" viewBox="0 0 126 124" version="1.1" xmlns="http://www.w3.org/2000/svg" xmlns:xlink="http://www.w3.org/1999/xlink">
    <title>Group 5</title>
    <defs>
        <polygon id="path-1" points="5.4934673e-05 0.170868085 34.5353249 0.170868085 34.5353249 34 5.4934673e-05 34"></polygon>
        <polygon id="path-3" points="0.282107547 0.0995294118 36.3546642 0.0995294118 36.3546642 23.9376 0.282107547 23.9376"></polygon>
    </defs>
    <g id="DESKTOP-DESIGN-960px" stroke="none" stroke-width="1" fill="none" fill-rule="evenodd">
        <g id="Landing" transform="translate(-166.000000, -527.000000)">
            <g id="How-it-works" transform="translate(-18.000000, 426.000000)">
                <g id="Group-5" transform="translate(184.000000, 101.000000)">
                    <ellipse id="Oval-Copy" fill="#00B3CA" cx="63" cy="62" rx="63" ry="62"></ellipse>
                    <g id="Group-7" transform="translate(44.000000, 44.000000)">
                        <g id="Group-3" transform="translate(0.500000, 0.000000)">
                            <mask id="mask-2" fill="white">
                                <use xlink:href="#path-1"></use>
                            </mask>
                            <g id="Clip-2"></g>
                            <path d="M12.52601,31.2671234 C13.76221,31.2909957 14.99071,31.3329532 16.21921,31.375634 C18.01121,31.4378468 19.86411,31.5015064 21.68341,31.5015064 L21.85071,31.5015064 C23.10091,31.4313362 24.25801,31.3966128 25.36121,31.3966128 C25.77491,31.3966128 26.18861,31.4016766 26.60161,31.4125277 C27.50111,31.4074638 28.43491,31.3503149 29.33791,31.2960596 C29.90771,31.2613362 30.47821,31.2266128 31.04801,31.2041872 L31.17261,31.0775915 C31.59681,28.043634 31.68011,24.9178043 31.76131,21.8925277 L31.80891,20.1954213 C31.89291,18.0150809 31.96151,15.6365277 32.02101,12.9208681 C32.15121,10.4055915 32.00841,7.88669787 31.86911,5.9711234 C31.76341,5.34320851 31.74171,4.70227234 31.71931,4.0830383 C31.71161,3.84142128 31.70321,3.59980426 31.68921,3.35891064 C31.68921,3.35891064 31.65561,3.10137872 31.64441,3.01963404 L31.50091,2.88363404 C30.97031,2.84818723 30.38861,2.83227234 29.64451,2.83227234 C29.30291,2.83227234 27.93161,2.84457021 27.58861,2.84457021 C27.07901,2.84457021 26.57081,2.83805957 26.06611,2.81346383 C25.23591,2.85397447 24.40711,2.86410213 23.57411,2.87422979 C23.08551,2.88074043 22.59621,2.88652766 22.10061,2.89882553 C21.24171,2.92848511 20.40101,2.9436766 19.55611,2.95886809 C18.50331,2.9784 17.44491,2.99720851 16.32841,3.04495319 C15.87761,3.06520851 15.44431,3.07244255 15.00541,3.07244255 C14.32361,3.07244255 13.62851,3.05435745 12.83121,3.03265532 C12.41891,3.02108085 12.05491,2.98491064 11.69161,2.94874043 C11.28001,2.90678298 10.89151,2.86771915 10.50021,2.86771915 C9.69661,2.85614468 8.94131,2.82865532 8.18601,2.80044255 C7.21371,2.76571915 6.20851,2.72810213 5.22431,2.72810213 C4.73711,2.72810213 4.24991,2.73750638 3.76271,2.75920851 C3.68991,2.76788936 3.60591,2.77150638 3.50861,2.77150638 C3.40641,2.77150638 3.28671,2.76788936 3.16141,2.76427234 C3.03541,2.75993191 2.90381,2.75559149 2.78061,2.75559149 L2.74141,2.75559149 C2.73021,2.85686809 2.66441,3.35601702 2.66441,3.35601702 C2.56781,4.30005957 2.54611,5.2896766 2.52511,6.24601702 C2.51601,6.65474043 2.50691,7.06346383 2.49291,7.47146383 C2.49081,7.95108085 2.49921,8.44733617 2.50761,8.94359149 C2.52371,9.88908085 2.54051,10.8671234 2.48381,11.8401021 C2.43621,13.1791234 2.49711,14.5637191 2.55591,15.902017 L2.58601,16.5964851 C2.58601,16.8402723 2.58251,17.0601872 2.57971,17.2801021 C2.57131,17.8233787 2.56361,18.3854638 2.59441,18.9287404 C2.62451,20.3552936 2.57691,21.7789532 2.53001,23.1563149 C2.49501,24.187166 2.45931,25.2534638 2.45721,26.298783 C2.45161,26.7364426 2.46771,27.1675915 2.48381,27.5987404 C2.49781,27.975634 2.51181,28.3525277 2.51251,28.7294213 C2.51321,28.9609106 2.50971,29.1931234 2.50621,29.4246128 C2.49921,29.9230383 2.49221,30.3932511 2.52161,30.8670809 C2.53141,30.9329106 2.54121,30.9972936 2.55311,31.0602298 L2.70431,31.1889957 L3.75221,31.2331234 C5.35031,31.3011234 7.00161,31.372017 8.62141,31.372017 L8.98821,31.3705702 C10.23211,31.3119745 11.28491,31.2671234 12.38041,31.2671234 L12.52601,31.2671234 Z M21.31731,34.0001447 C19.47351,34.0001447 17.60381,33.9299745 15.79641,33.8612511 C14.65121,33.8185702 13.50601,33.775166 12.36081,33.7491234 C12.14591,33.7418894 11.93521,33.7389957 11.72381,33.7389957 C11.07701,33.7389957 10.43021,33.7664851 9.78411,33.7939745 C9.12401,33.8214638 8.46461,33.8489532 7.80381,33.8489532 L7.68411,33.8489532 C6.94911,33.8344851 6.22111,33.8164 5.49311,33.7990383 C4.34791,33.7708255 3.20271,33.7433362 2.05681,33.7288681 L2.05611,33.7288681 C1.91821,33.7288681 1.77261,33.710783 1.62981,33.6753362 L1.54161,33.6572511 L1.47441,33.6384426 C1.35751,33.5957617 1.24481,33.5451234 1.13421,33.4865277 L1.09851,33.4677191 L1.06631,33.4438468 C0.98861,33.3845277 0.91161,33.3215915 0.83671,33.2572085 C0.77651,33.2044 0.72471,33.1472511 0.68061,33.0850383 C-0.05649,32.0404426 -0.01869,30.7564 0.01421,29.6235489 C0.02191,29.3544426 0.02961,29.0896766 0.02681,28.8314213 C0.02891,28.4581447 0.02261,28.0928255 0.01561,27.726783 C0.00791,27.2775489 -0.00049,26.8283149 0.00651,26.3790809 C0.01071,25.3214638 0.05201,24.2443149 0.09191,23.2033362 C0.14441,21.8317617 0.19901,20.413166 0.16681,19.0264 C0.13741,18.4910809 0.14371,17.9384 0.14931,17.4038043 C0.15631,16.7643149 0.16331,16.1602723 0.11361,15.5504426 C0.00861,14.1282298 0.03451,12.6973362 0.05901,11.3127404 C0.07091,10.6566128 0.08281,9.9997617 0.08141,9.34291064 C0.02961,7.76444255 0.06881,6.18597447 0.10661,4.65959149 C0.11921,4.05844255 0.19621,3.41171915 0.27041,2.78597447 C0.30471,2.49733617 0.33831,2.21231489 0.36491,1.93886809 C0.37471,1.84193191 0.38031,1.74933617 0.38591,1.66252766 C0.41601,1.18869787 0.46151,0.471804255 1.31551,0.345931915 C2.10091,0.22946383 3.29161,0.170868085 4.85331,0.170868085 C5.37201,0.170868085 5.86411,0.177378723 6.28341,0.186059574 C7.82411,0.23452766 9.35991,0.286612766 10.89501,0.343038298 C11.87361,0.386442553 12.77241,0.421165957 13.74821,0.446485106 C14.34461,0.421165957 14.98371,0.411761702 15.58641,0.40452766 C17.39031,0.382825532 18.99821,0.337974468 20.85741,0.277208511 C21.47691,0.256953191 22.07891,0.252612766 22.69491,0.252612766 L24.29161,0.255506383 C26.64851,0.255506383 29.09151,0.289506383 31.38051,0.3264 L31.47151,0.328570213 C31.86421,0.340144681 32.27091,0.350995745 32.68461,0.445761702 C32.83371,0.481208511 32.97161,0.538357447 33.10041,0.615761702 L33.21241,0.675080851 C33.39021,0.800953191 33.61281,0.980357447 33.76121,1.25452766 C34.00971,1.62997447 34.06921,2.09295319 34.12241,2.5024 L34.13641,2.61308085 C34.20571,3.10354894 34.21341,3.59257021 34.22181,4.0664 C34.22741,4.38614468 34.23231,4.70661277 34.25751,5.02563404 C34.37791,5.97546383 34.42131,6.96218723 34.46331,7.91708085 L34.46961,8.0451234 C34.59771,10.1625277 34.51301,12.3117617 34.43111,14.3901021 C34.40311,15.1113362 34.37441,15.8318468 34.35481,16.5523574 C34.32821,17.3799319 34.31071,18.206783 34.29251,19.0329106 C34.27571,19.7845277 34.25961,20.5361447 34.23721,21.2870383 C34.21901,21.8201872 34.20501,22.3518894 34.19031,22.8835915 C34.13991,24.7130809 34.08811,26.604783 33.90751,28.4661021 C33.88651,29.2553362 33.79411,30.0785702 33.71011,30.7860596 C33.68351,30.9705277 33.66251,31.1419745 33.64221,31.3134213 C33.61491,31.5318894 33.58901,31.7503574 33.55471,31.9681021 C33.49311,32.4788255 33.31321,32.8846553 33.02131,33.1544851 C32.38011,33.7498468 31.57161,33.7997617 30.86391,33.7997617 L30.37601,33.7975915 C30.23461,33.7975915 30.09601,33.7990383 29.96021,33.8084426 C29.23851,33.8286979 28.53501,33.8619745 27.83291,33.8959745 L27.59281,33.9075489 C27.37651,33.9162298 27.16441,33.9191234 26.95231,33.9191234 C26.58831,33.9191234 26.22431,33.9097191 25.86101,33.9003149 C25.50541,33.8909106 25.15051,33.8815064 24.79491,33.8815064 C24.58351,33.8815064 24.37141,33.8851234 24.16001,33.8930809 C23.66021,33.8966979 23.17791,33.9241872 22.69561,33.9516766 C22.38761,33.9697617 22.07961,33.9871234 21.77161,33.9986979 L21.31731,34.0001447 Z" id="Fill-1" fill="#FEFEFE" mask="url(#mask-2)"></path>
                        </g>
                        <g id="Group-6" transform="translate(8.500000, 0.000000)">
                            <mask id="mask-4" fill="white">
                                <use xlink:href="#path-3"></use>
                            </mask>
                            <g id="Clip-5"></g>
                            <path d="M9.79424906,23.9376 C9.57085283,23.9376 9.3523434,23.8980706 9.14430566,23.8204235 C8.81968302,23.6983059 8.54672075,23.5168941 8.28283396,23.2493647 L8.00777736,22.9670118 C7.60007925,22.5470118 7.19377736,22.1128941 6.80004151,21.6921882 C6.42026792,21.2863059 6.04956981,20.8896 5.67817358,20.5041882 C5.27117358,20.0806588 4.8704566,19.6345412 4.48300377,19.2032471 C4.08438113,18.7606588 3.6913434,18.3230118 3.2899283,17.9058353 C2.59670189,17.1858353 1.88253208,16.4644235 1.19070189,15.7670118 L0.685267925,15.2559529 C0.147720755,14.7117176 0.147720755,13.7926588 0.685267925,13.2491294 C0.946362264,12.9844235 1.29890943,12.8383059 1.67728679,12.8383059 C2.05426792,12.8383059 2.40681509,12.9844235 2.66930566,13.2491294 L3.33041887,13.9140706 C3.80094717,14.3863059 4.28683396,14.8754824 4.75736226,15.3639529 C5.36541887,15.9943059 5.96649434,16.6536 6.54802264,17.2917176 L6.65553208,17.4110118 C7.04647547,17.8408941 7.45138113,18.2700706 7.84441887,18.6872471 L8.59349434,19.4841882 C8.92928679,19.8441882 9.26647547,20.2034824 9.60575849,20.5599529 L9.95551321,20.9340706 C10.0448717,20.8740706 10.1307396,20.8126588 10.2138151,20.7512471 L10.3352868,20.6608941 C10.9936075,20.1434824 11.5276642,19.7171294 12.0135509,19.3218353 C12.4387019,18.9759529 12.8799094,18.6336 13.3071547,18.3032471 L14.683834,17.2232471 C15.7861547,16.3585412 16.9205887,15.4684235 17.995683,14.5493647 C18.6651736,13.9754824 19.2997585,13.3896 19.999966,12.7380706 C20.3224943,12.4373647 20.6429283,12.1345412 20.9633623,11.8310118 C21.3682679,11.4477176 21.7682868,11.0686588 22.1669094,10.7016 C22.8364,10.0860706 23.5240415,9.46701176 24.1893434,8.86842353 L25.2825887,7.88371765 C26.0100226,7.22724706 26.7625887,6.54818824 27.5193434,5.9016 C27.9263434,5.55501176 28.3459094,5.20912941 28.7529094,4.87524706 C29.194117,4.51312941 29.6395132,4.14748235 30.0702491,3.77830588 C31.3380226,2.69265882 32.6427962,1.60771765 33.9049849,0.558070588 L33.9831736,0.493129412 C34.2177396,0.299011765 34.515834,0.0992470588 34.9521547,0.0992470588 C35.3207585,0.0992470588 35.6823811,0.251011765 35.9441736,0.515011765 C36.2052679,0.778305882 36.3546642,1.14395294 36.3546642,1.51807059 C36.3546642,1.82442353 36.2408717,2.27618824 35.9197396,2.54301176 L35.3982491,2.97642353 C34.3454943,3.85171765 33.2787774,4.73830588 32.2420792,5.62771765 C31.7233811,6.07171765 31.1865321,6.5136 30.667834,6.94136471 L29.7595887,7.69242353 C29.076834,8.26277647 28.410834,8.86277647 27.7657774,9.44301176 C27.7657774,9.44301176 26.8694,10.2470118 26.5615321,10.5216 C26.0630792,10.9663059 25.5562491,11.4187765 25.0640792,11.8705412 C24.4734755,12.4133647 23.8800792,12.9710118 23.3062302,13.5110118 C22.1438717,14.6044235 20.9417208,15.7352471 19.7011736,16.7968941 C18.8955509,17.4858353 18.0494377,18.1486588 17.2305509,18.7888941 L15.8580604,19.8667765 C15.3156264,20.2931294 14.7731925,20.7201882 14.2286642,21.1437176 L13.4125698,21.8093647 C13.2212868,21.9660706 13.0258151,22.1185412 12.8310415,22.2717176 L12.4645321,22.5632471 C12.2083245,22.7700706 11.9430415,22.9832471 11.6735698,23.1745412 C11.1758151,23.5296 10.5119094,23.9376 9.79424906,23.9376" id="Fill-4" fill="#FEFEFE" mask="url(#mask-4)"></path>
                        </g>
                    </g>
                </g>
            </g>
        </g>
    </g>
</svg>