<?xml version="1.0" encoding="UTF-8"?>
<svg width="127px" height="125px" viewBox="0 0 127 125" version="1.1" xmlns="http://www.w3.org/2000/svg" xmlns:xlink="http://www.w3.org/1999/xlink">
    <title>Group 10</title>
    <g id="DESKTOP-DESIGN-960px" stroke="none" stroke-width="1" fill="none" fill-rule="evenodd">
        <g id="Landing" transform="translate(-666.000000, -526.000000)">
            <g id="How-it-works" transform="translate(-18.000000, 426.000000)">
                <g id="Group-10" transform="translate(684.000000, 100.000000)">
                    <g id="Group-7-Copy-3" fill="#00B3CA">
                        <ellipse id="Oval-Copy" cx="63.1493056" cy="62.5588235" rx="62.9826389" ry="61.8137255"></ellipse>
                    </g>
                    <path d="M94.9411889,68.4799865 C95.1325796,70.0124823 94.8428499,71.5925987 94.2752335,72.994076 C93.4635673,74.9948823 92.1737413,76.656916 90.6445183,77.9525424 C87.9976152,80.1939192 84.9027943,81.2689609 81.7995141,82.2677602 C81.9399378,84.1656764 82.1981568,85.9039524 83.3281027,88 C83.3281027,88 78.5063235,85.7601036 75.9091186,84.01862 C72.3293705,84.7534086 68.5457541,84.6919706 65.1768531,83.1950053 C61.9798866,81.7760095 59.2555813,78.8131679 57.9071749,75.1893126 L57.8065097,74.9100041 C57.3981389,73.7513179 57.1331525,72.5255187 57.0373513,71.2656695 C56.794359,68.1066705 57.7475064,64.6510912 59.5890877,62.2999155 C62.6456305,58.3984789 67.2138433,58.2630192 71.4096372,58.0717965 C76.0599049,57.8610814 80.980869,58.0429281 85.5167252,59.5922021 C87.3957388,60.2329832 89.2083471,61.1089065 90.9054865,62.2870851 C92.1513243,63.1491911 93.2973428,64.3303305 94.0574075,65.751547 C94.1060482,65.8401263 94.1529971,65.9314197 94.1952934,66.0212327 C94.5702502,66.7804485 94.8314299,67.6035697 94.9411889,68.4799865 Z" id="Stroke-1" stroke="#FFFFFF" stroke-width="2.5"></path>
                    <path d="M74.9380935,54.4799865 C75.1395575,56.0124823 74.8345789,57.5925987 74.2370879,58.994076 C73.3827024,60.9948823 72.0249909,62.656916 70.4152824,63.9525424 C67.6290687,66.1939192 64.3713624,67.2689609 61.1047517,68.2677602 C61.2525661,70.1656764 61.5243756,71.9039524 62.7137923,74 C62.7137923,74 57.6382352,71.7601036 54.9043354,70.01862 C51.1361794,70.7534086 47.1534254,70.6919706 43.6072138,69.1950053 C40.2419858,67.7760095 37.3742961,64.8131679 35.954921,61.1893126 L35.8489576,60.9100041 C35.4190935,59.7513179 35.1401605,58.5255187 35.0393172,57.2656695 C34.7835358,54.1066705 35.7868488,50.6510912 37.7253554,48.2999155 C40.9427689,44.3984789 45.751414,44.2630192 50.1680392,44.0717965 C55.0630578,43.8610814 60.24302,44.0429281 65.0176055,45.5922021 C66.9955145,46.2329832 68.9035233,47.1089065 70.6899858,48.2870851 C72.001394,49.1491911 73.2077293,50.3303305 74.0077973,51.751547 C74.0589981,51.8401263 74.108418,51.9314197 74.1529405,52.0212327 C74.5476318,52.7804485 74.8225578,53.6035697 74.9380935,54.4799865 Z" id="Stroke-1-Copy" stroke="#FFFFFF" stroke-width="2.5" transform="translate(55.000000, 59.000000) scale(-1, 1) translate(-55.000000, -59.000000) "></path>
                </g>
            </g>
        </g>
    </g>
</svg>