<?xml version="1.0" encoding="UTF-8"?>
<svg width="143px" height="56px" viewBox="0 0 143 56" version="1.1" xmlns="http://www.w3.org/2000/svg" xmlns:xlink="http://www.w3.org/1999/xlink">
    <title>Group 58</title>
    <defs>
        <polygon id="path-1" points="1.71983229 0.114974615 12.859275 0.114974615 12.859275 13.8048423 1.71983229 13.8048423"></polygon>
        <polygon id="path-3" points="0 1.74453764 14.1025806 1.74453764 14.1025806 15.7465919 0 15.7465919"></polygon>
        <polygon id="path-5" points="0 1.82815554 14.1025806 1.82815554 14.1025806 15.8313931 0 15.8313931"></polygon>
    </defs>
    <g id="Symbols" stroke="none" stroke-width="1" fill="none" fill-rule="evenodd">
        <g id="Nav-mobile" transform="translate(-27.000000, -24.000000)">
            <g id="Group-58" transform="translate(27.000000, 24.000000)">
                <path d="M26.1723764,5.74873074 L24.4484319,5.74873074 C24.3252931,5.74873074 24.2220153,5.79014527 24.1366125,5.87494644 C24.0512097,5.95974762 24.0075153,6.06229787 24.0075153,6.18259721 L24.0075153,8.30854292 C24.0075153,8.42884226 24.0512097,8.53139252 24.1366125,8.61422157 C24.2220153,8.69902274 24.3252931,8.74240939 24.4484319,8.74240939 L26.4107097,8.74240939 C26.8754597,8.74240939 27.2150847,8.59252825 27.4295847,8.30065444 C27.6420986,8.00680851 27.7513347,7.67352018 27.7513347,7.29881731 C27.7513347,7.10554952 27.7155847,6.91819809 27.6500431,6.73084666 C27.5825153,6.54546735 27.4812236,6.37980924 27.3481542,6.23584446 C27.2111125,6.09187968 27.0462653,5.97355246 26.8516264,5.88480704 C26.6550014,5.79408951 26.4305708,5.74873074 26.1723764,5.74873074 M26.0393069,12.1147351 L24.4464458,12.1147351 C24.3233069,12.1147351 24.2220153,12.1561497 24.1366125,12.2409508 C24.0512097,12.325752 24.0075153,12.4283023 24.0075153,12.5486016 L24.0075153,15.2484343 C24.0075153,15.3707058 23.9658069,15.4752282 23.8804042,15.5580572 C23.7969875,15.6428584 23.6917236,15.6842729 23.5705708,15.6842729 L20.8297375,15.6842729 C20.7065986,15.6842729 20.6033208,15.6428584 20.5179181,15.5580572 C20.4345014,15.4752282 20.3927931,15.3707058 20.3927931,15.2484343 L20.3927931,2.84774175 C20.3927931,2.72941453 20.4345014,2.62489215 20.5199042,2.54009098 C20.6053069,2.4552898 20.7085847,2.41387528 20.8317236,2.41387528 L26.4186542,2.41387528 C27.0998903,2.41387528 27.7414042,2.54009098 28.3451819,2.7944945 C28.9449875,3.04889802 29.4693208,3.39993544 29.9142097,3.84563463 C30.3571125,4.29330594 30.7106403,4.81197359 30.9728069,5.4055818 C31.2349736,5.9972179 31.3660569,6.63224065 31.3660569,7.30867792 C31.3660569,7.98708731 31.2568208,8.61619369 31.0363625,9.20388555 C30.8178903,9.78960528 30.4842236,10.2984123 30.0373486,10.7263624 C29.5944458,11.1543125 29.0383347,11.4935172 28.3729875,11.7420044 C27.7076403,11.9885194 26.9310708,12.1147351 26.0393069,12.1147351" id="Fill-1" fill="#0A366B"></path>
                <path d="M37.3152542,8.54125312 L39.2417819,8.54125312 C39.3867681,8.54125312 39.5377125,8.51364343 39.6966014,8.46039618 C39.8535042,8.40714894 40.0004764,8.32234776 40.1315597,8.20599266 C40.2646292,8.08963756 40.3738653,7.94961702 40.4592681,7.78001467 C40.5446708,7.61041233 40.5863792,7.41122817 40.5863792,7.18246222 C40.5863792,7.06019076 40.5665181,6.92017021 40.5228236,6.75648423 C40.4811153,6.59279824 40.4076292,6.43700073 40.3063375,6.28317535 C40.2010736,6.1332942 40.0640319,6.0070785 39.8872681,5.90255613 C39.7105042,5.80000587 39.4979903,5.74873074 39.2417819,5.74873074 L37.3152542,5.74873074 C37.1941014,5.74873074 37.0928097,5.79211739 37.0074069,5.87494644 C36.9220042,5.95974762 36.8802958,6.06426999 36.8802958,6.18456933 L36.8802958,8.10541453 C36.8802958,8.22768599 36.9220042,8.33023624 37.0074069,8.41503742 C37.0928097,8.49983859 37.1941014,8.54125312 37.3152542,8.54125312 M36.4413653,15.6842729 L33.7064903,15.6842729 C33.5833514,15.6842729 33.4780875,15.6428584 33.3926847,15.5580572 C33.3072819,15.4752282 33.2655736,15.3707058 33.2655736,15.2484343 L33.2655736,2.84774175 C33.2655736,2.72941453 33.3072819,2.62489215 33.3926847,2.54009098 C33.4761014,2.4552898 33.5813653,2.41387528 33.7045042,2.41387528 L39.3808097,2.41387528 C40.0878653,2.41387528 40.7393097,2.53023037 41.3351431,2.76688481 C41.9309764,3.00156713 42.4394208,3.33091123 42.8604764,3.75491709 C43.2795458,4.17892296 43.6092403,4.67984153 43.8455875,5.2596449 C44.0819347,5.8414204 44.2030875,6.48038738 44.2030875,7.18246222 C44.2030875,7.5689978 44.1554208,7.95158914 44.0640597,8.33418048 C43.9746847,8.71479971 43.8416153,9.07372561 43.6727958,9.41095818 C43.5019903,9.75016288 43.3013931,10.0558415 43.0690181,10.326022 C42.8386292,10.6001467 42.5764625,10.8249685 42.2845042,11.0064035 C42.1871847,11.079372 42.1236292,11.1681174 42.0918514,11.2706676 C42.0640458,11.3732179 42.0839069,11.4718239 42.1573931,11.5684578 C42.6201569,12.1738988 43.1067542,12.7951167 43.6171847,13.4360558 C44.1296014,14.078967 44.5844208,14.6627146 44.9856153,15.1951871 C45.0591014,15.291821 45.0789625,15.3983155 45.0432125,15.5126985 C45.0054764,15.6290536 44.9260319,15.6842729 44.8048792,15.6842729 L41.4086292,15.6842729 C41.2874764,15.6842729 41.1563931,15.6507469 41.0153792,15.5836948 C40.8763514,15.5186148 40.7691014,15.4377579 40.6956153,15.3391519 C40.3083236,14.8323169 39.9230181,14.3195657 39.5416847,13.7989259 C39.1603514,13.2782861 38.7810042,12.7537021 38.4076153,12.2212296 C38.3341292,12.1245957 38.2308514,12.0437388 38.0977819,11.9766867 C37.9647125,11.9116067 37.8376014,11.8761086 37.7164486,11.8761086 L37.3172403,11.8761086 C37.1941014,11.8761086 37.0928097,11.9194952 37.0074069,12.0042964 C36.9220042,12.0890976 36.8802958,12.19362 36.8802958,12.3119472 L36.8802958,15.2484343 C36.8802958,15.3707058 36.8366014,15.4752282 36.7511986,15.5580572 C36.6657958,15.6428584 36.5625181,15.6842729 36.4413653,15.6842729" id="Fill-3" fill="#0A366B"></path>
                <path d="M50.3334181,6.1839777 L50.3334181,6.94718826 C50.3334181,7.0674876 50.3751264,7.17003786 50.4605292,7.25483903 C50.5459319,7.33964021 50.6492097,7.38105473 50.7723486,7.38105473 L55.7197514,7.38105473 C55.8409042,7.38105473 55.9441819,7.42444138 56.0295847,7.50924255 C56.1149875,7.59404373 56.1586819,7.69659398 56.1586819,7.81689332 L56.1586819,10.319514 C56.1586819,10.4398134 56.1149875,10.5423636 56.0295847,10.6271648 C55.9441819,10.711966 55.8409042,10.7533805 55.7197514,10.7533805 L50.7723486,10.7533805 C50.6492097,10.7533805 50.5459319,10.7967671 50.4605292,10.8815683 C50.3751264,10.9663695 50.3334181,11.0689197 50.3334181,11.1892191 L50.3334181,11.8774891 C50.3334181,11.9977884 50.3751264,12.1023108 50.4605292,12.1851398 C50.5459319,12.269941 50.6492097,12.3113555 50.7723486,12.3113555 L56.4506403,12.3113555 C56.5717931,12.3113555 56.6750708,12.3547422 56.7604736,12.4395434 C56.8438903,12.5243445 56.8875847,12.6288669 56.8875847,12.7471941 L56.8875847,15.2498148 C56.8875847,15.3701142 56.8438903,15.4746365 56.7604736,15.5574656 C56.6750708,15.6422668 56.5717931,15.6836813 56.4506403,15.6836813 L47.1556403,15.6836813 C47.0344875,15.6836813 46.9312097,15.6422668 46.8458069,15.5574656 C46.7604042,15.4746365 46.7186958,15.3701142 46.7186958,15.2498148 L46.7186958,2.84912223 C46.7186958,2.72882289 46.7604042,2.62430051 46.8458069,2.53949934 C46.9312097,2.45469817 47.0344875,2.41328364 47.1556403,2.41328364 L56.4506403,2.41328364 C56.5717931,2.41328364 56.6750708,2.45469817 56.7604736,2.53949934 C56.8438903,2.62430051 56.8875847,2.72882289 56.8875847,2.84912223 L56.8875847,5.31624475 C56.8875847,5.43457197 56.8438903,5.53909435 56.7604736,5.62389552 C56.6750708,5.7086967 56.5717931,5.7481391 56.4506403,5.7481391 L50.7723486,5.7481391 C50.6492097,5.7481391 50.5459319,5.79349787 50.4605292,5.87632693 C50.3751264,5.9611281 50.3334181,6.06367836 50.3334181,6.1839777" id="Fill-5" fill="#0A366B"></path>
                <path d="M65.3361042,5.74873074 L63.6121597,5.74873074 C63.4890208,5.74873074 63.3857431,5.79014527 63.3003403,5.87494644 C63.2149375,5.95974762 63.1712431,6.06229787 63.1712431,6.18259721 L63.1712431,8.30854292 C63.1712431,8.42884226 63.2149375,8.53139252 63.3003403,8.61422157 C63.3857431,8.69902274 63.4890208,8.74240939 63.6121597,8.74240939 L65.5744375,8.74240939 C66.0391875,8.74240939 66.3788125,8.59252825 66.5933125,8.30065444 C66.8058264,8.00680851 66.9150625,7.67352018 66.9150625,7.29881731 C66.9150625,7.10554952 66.8793125,6.91819809 66.8137708,6.73084666 C66.7462431,6.54546735 66.6449514,6.37980924 66.5118819,6.23584446 C66.3748403,6.09187968 66.2099931,5.97355246 66.0153542,5.88480704 C65.8187292,5.79408951 65.5942986,5.74873074 65.3361042,5.74873074 M65.2030347,12.1147351 L63.6101736,12.1147351 C63.4870347,12.1147351 63.3857431,12.1561497 63.3003403,12.2409508 C63.2149375,12.325752 63.1712431,12.4283023 63.1712431,12.5486016 L63.1712431,15.2484343 C63.1712431,15.3707058 63.1295347,15.4752282 63.0441319,15.5580572 C62.9607153,15.6428584 62.8554514,15.6842729 62.7342986,15.6842729 L59.9934653,15.6842729 C59.8703264,15.6842729 59.7670486,15.6428584 59.6816458,15.5580572 C59.5982292,15.4752282 59.5565208,15.3707058 59.5565208,15.2484343 L59.5565208,2.84774175 C59.5565208,2.72941453 59.5982292,2.62489215 59.6836319,2.54009098 C59.7690347,2.4552898 59.8723125,2.41387528 59.9954514,2.41387528 L65.5823819,2.41387528 C66.2636181,2.41387528 66.9051319,2.54009098 67.5089097,2.7944945 C68.1087153,3.04889802 68.6330486,3.39993544 69.0779375,3.84563463 C69.5208403,4.29330594 69.8743681,4.81197359 70.1365347,5.4055818 C70.3987014,5.9972179 70.5297847,6.63224065 70.5297847,7.30867792 C70.5297847,7.98708731 70.4205486,8.61619369 70.2000903,9.20388555 C69.9816181,9.78960528 69.6479514,10.2984123 69.2010764,10.7263624 C68.7581736,11.1543125 68.2020625,11.4935172 67.5367153,11.7420044 C66.8713681,11.9885194 66.0947986,12.1147351 65.2030347,12.1147351" id="Fill-7" fill="#0A366B"></path>
                <path d="M76.608675,10.7174879 L78.2333139,10.7174879 C78.3564528,10.7174879 78.4438417,10.6780455 78.4974667,10.5991607 C78.5530778,10.5202759 78.5510917,10.4275862 78.4895222,10.3191196 C78.3683694,10.0173852 78.2213972,9.66240352 78.0525778,9.25811886 C77.8817722,8.85383419 77.7228833,8.47518709 77.5759111,8.12612179 C77.5282444,8.01568305 77.4746194,7.9624358 77.4110639,7.9624358 C77.3514806,7.9624358 77.2978556,8.01568305 77.2482028,8.12612179 L76.3345917,10.3191196 C76.286925,10.4275862 76.286925,10.5202759 76.3345917,10.5991607 C76.3842444,10.6780455 76.4756056,10.7174879 76.608675,10.7174879 L76.608675,10.7174879 Z M75.5322028,2.83097872 C75.5798694,2.72053999 75.6613,2.62785033 75.7784806,2.54896552 C75.893675,2.4700807 76.0188,2.43261042 76.1538556,2.43261042 L78.7099806,2.43261042 C78.8291472,2.43261042 78.9503,2.4700807 79.0635083,2.54896552 C79.1806889,2.62785033 79.2621194,2.72053999 79.3097861,2.83097872 L84.6424944,15.1587029 C84.6901611,15.2691416 84.6822167,15.3815525 84.6146889,15.5038239 C84.5491472,15.6241233 84.4180639,15.685259 84.223425,15.685259 L81.1012583,15.685259 C80.9662028,15.685259 80.8430639,15.6458166 80.7258833,15.5669318 C80.6106889,15.488047 80.5233,15.3953573 80.4597444,15.2849186 L79.9671889,14.1982803 C79.9076056,14.0898136 79.8182306,13.9951519 79.7050222,13.9162671 C79.5878417,13.8393544 79.468675,13.7979398 79.3475222,13.7979398 L75.4944667,13.7979398 C75.3613972,13.7979398 75.2382583,13.8393544 75.1210778,13.9162671 C75.0038972,13.9951519 74.9224667,14.0898136 74.8748,14.1982803 L74.3623833,15.2849186 C74.3147167,15.3953573 74.2332861,15.488047 74.1161056,15.5669318 C74.0009111,15.6458166 73.8817444,15.685259 73.7605917,15.685259 L70.6185639,15.685259 C70.5589806,15.685259 70.495425,15.6734263 70.4298833,15.6477887 C70.3603694,15.6241233 70.3067444,15.5886251 70.2650361,15.5393221 C70.2213417,15.4919912 70.1955222,15.4308555 70.1816194,15.3598591 C70.1697028,15.2849186 70.1895639,15.2001174 70.2372306,15.1054556 L75.5322028,2.83097872 Z" id="Fill-9" fill="#0A366B"></path>
                <path d="M90.2049958,8.54125312 L92.1315236,8.54125312 C92.2765097,8.54125312 92.4274542,8.51364343 92.5863431,8.46039618 C92.7432458,8.40714894 92.8902181,8.32234776 93.0213014,8.20599266 C93.1543708,8.08963756 93.2636069,7.94961702 93.3490097,7.78001467 C93.4344125,7.61041233 93.4761208,7.41122817 93.4761208,7.18246222 C93.4761208,7.06019076 93.4562597,6.92017021 93.4125653,6.75648423 C93.3708569,6.59279824 93.2973708,6.43700073 93.1960792,6.28317535 C93.0908153,6.1332942 92.9537736,6.0070785 92.7770097,5.90255613 C92.6002458,5.80000587 92.3877319,5.74873074 92.1315236,5.74873074 L90.2049958,5.74873074 C90.0838431,5.74873074 89.9825514,5.79211739 89.8971486,5.87494644 C89.8117458,5.95974762 89.7700375,6.06426999 89.7700375,6.18456933 L89.7700375,8.10541453 C89.7700375,8.22768599 89.8117458,8.33023624 89.8971486,8.41503742 C89.9825514,8.49983859 90.0838431,8.54125312 90.2049958,8.54125312 M89.3311069,15.6842729 L86.5962319,15.6842729 C86.4730931,15.6842729 86.3678292,15.6428584 86.2824264,15.5580572 C86.1970236,15.4752282 86.1553153,15.3707058 86.1553153,15.2484343 L86.1553153,2.84774175 C86.1553153,2.72941453 86.1970236,2.62489215 86.2824264,2.54009098 C86.3658431,2.4552898 86.4711069,2.41387528 86.5942458,2.41387528 L92.2705514,2.41387528 C92.9776069,2.41387528 93.6290514,2.53023037 94.2248847,2.76688481 C94.8207181,3.00156713 95.3291625,3.33091123 95.7502181,3.75491709 C96.1692875,4.17892296 96.4989819,4.67984153 96.7353292,5.2596449 C96.9716764,5.8414204 97.0928292,6.48038738 97.0928292,7.18246222 C97.0928292,7.5689978 97.0451625,7.95158914 96.9538014,8.33418048 C96.8644264,8.71479971 96.7313569,9.07372561 96.5625375,9.41095818 C96.3917319,9.75016288 96.1911347,10.0558415 95.9587597,10.326022 C95.7283708,10.6001467 95.4662042,10.8249685 95.1742458,11.0064035 C95.0769264,11.079372 95.0133708,11.1681174 94.9815931,11.2706676 C94.9537875,11.3732179 94.9736486,11.4718239 95.0471347,11.5684578 C95.5098986,12.1738988 95.9964958,12.7951167 96.5069264,13.4360558 C97.0193431,14.078967 97.4741625,14.6627146 97.8753569,15.1951871 C97.9488431,15.291821 97.9687042,15.3983155 97.9329542,15.5126985 C97.8952181,15.6290536 97.8157736,15.6842729 97.6946208,15.6842729 L94.2983708,15.6842729 C94.1772181,15.6842729 94.0461347,15.6507469 93.9051208,15.5836948 C93.7660931,15.5186148 93.6588431,15.4377579 93.5853569,15.3391519 C93.1980653,14.8323169 92.8127597,14.3195657 92.4314264,13.7989259 C92.0500931,13.2782861 91.6707458,12.7537021 91.2973569,12.2212296 C91.2238708,12.1245957 91.1205931,12.0437388 90.9875236,11.9766867 C90.8544542,11.9116067 90.7273431,11.8761086 90.6061903,11.8761086 L90.2069819,11.8761086 C90.0838431,11.8761086 89.9825514,11.9194952 89.8971486,12.0042964 C89.8117458,12.0890976 89.7700375,12.19362 89.7700375,12.3119472 L89.7700375,15.2484343 C89.7700375,15.3707058 89.7263431,15.4752282 89.6409403,15.5580572 C89.5555375,15.6428584 89.4522597,15.6842729 89.3311069,15.6842729" id="Fill-11" fill="#0A366B"></path>
                <path d="M105.164981,10.7174879 L106.789619,10.7174879 C106.912758,10.7174879 107.000147,10.6780455 107.053772,10.5991607 C107.109383,10.5202759 107.107397,10.4275862 107.045828,10.3191196 C106.924675,10.0173852 106.777703,9.66240352 106.608883,9.25811886 C106.438078,8.85383419 106.279189,8.47518709 106.132217,8.12612179 C106.08455,8.01568305 106.030925,7.9624358 105.967369,7.9624358 C105.907786,7.9624358 105.854161,8.01568305 105.804508,8.12612179 L104.890897,10.3191196 C104.843231,10.4275862 104.843231,10.5202759 104.890897,10.5991607 C104.94055,10.6780455 105.031911,10.7174879 105.164981,10.7174879 L105.164981,10.7174879 Z M104.088508,2.83097872 C104.136175,2.72053999 104.217606,2.62785033 104.334786,2.54896552 C104.449981,2.4700807 104.575106,2.43261042 104.710161,2.43261042 L107.266286,2.43261042 C107.385453,2.43261042 107.506606,2.4700807 107.619814,2.54896552 C107.736994,2.62785033 107.818425,2.72053999 107.866092,2.83097872 L113.1988,15.1587029 C113.246467,15.2691416 113.238522,15.3815525 113.170994,15.5038239 C113.105453,15.6241233 112.974369,15.685259 112.779731,15.685259 L109.657564,15.685259 C109.522508,15.685259 109.399369,15.6458166 109.282189,15.5669318 C109.166994,15.488047 109.079606,15.3953573 109.01605,15.2849186 L108.523494,14.1982803 C108.463911,14.0898136 108.374536,13.9951519 108.261328,13.9162671 C108.144147,13.8393544 108.024981,13.7979398 107.903828,13.7979398 L104.050772,13.7979398 C103.917703,13.7979398 103.794564,13.8393544 103.677383,13.9162671 C103.560203,13.9951519 103.478772,14.0898136 103.431106,14.1982803 L102.918689,15.2849186 C102.871022,15.3953573 102.789592,15.488047 102.672411,15.5669318 C102.557217,15.6458166 102.43805,15.685259 102.316897,15.685259 L99.1748694,15.685259 C99.1152861,15.685259 99.0517306,15.6734263 98.9861889,15.6477887 C98.916675,15.6241233 98.86305,15.5886251 98.8213417,15.5393221 C98.7776472,15.4919912 98.7518278,15.4308555 98.737925,15.3598591 C98.7260083,15.2849186 98.7458694,15.2001174 98.7935361,15.1054556 L104.088508,2.83097872 Z" id="Fill-13" fill="#0A366B"></path>
                <path d="M29.9235444,25.469934 L27.3674194,25.469934 C27.2442806,25.469934 27.1429889,25.5133206 27.0575861,25.5961497 C26.9721833,25.6809508 26.9284889,25.7854732 26.9284889,25.9057726 L26.9284889,34.9696376 C26.9284889,35.091909 26.8907528,35.1964314 26.8113083,35.2792605 C26.7318639,35.3640616 26.6246139,35.4054762 26.4895583,35.4054762 L23.7526972,35.4054762 C23.6295583,35.4054762 23.5262806,35.3640616 23.4408778,35.2792605 C23.355475,35.1964314 23.3137667,35.091909 23.3137667,34.9696376 L23.3137667,25.9057726 C23.3137667,25.7854732 23.2740444,25.6809508 23.1946,25.5961497 C23.1151556,25.5133206 23.0098917,25.469934 22.8748361,25.469934 L20.2829611,25.469934 C20.1618083,25.469934 20.0565444,25.4285194 19.9711417,25.3456904 C19.8857389,25.2608892 19.8460167,25.1563668 19.8460167,25.0360675 L19.8460167,22.568945 C19.8460167,22.4506178 19.8857389,22.3460954 19.9711417,22.2612942 C20.0565444,22.176493 20.1618083,22.1350785 20.2829611,22.1350785 L29.9235444,22.1350785 C30.0566139,22.1350785 30.1638639,22.176493 30.2433083,22.2612942 C30.3207667,22.3460954 30.362475,22.4506178 30.362475,22.568945 L30.362475,25.0360675 C30.362475,25.1563668 30.3207667,25.2608892 30.2433083,25.3456904 C30.1638639,25.4285194 30.0566139,25.469934 29.9235444,25.469934" id="Fill-15" fill="#0A366B"></path>
                <path d="M31.921175,22.5888634 C31.921175,22.4665919 31.9628833,22.3660138 32.0482861,22.2812126 C32.1317028,22.1964114 32.2369667,22.1530248 32.3581194,22.1530248 L35.102925,22.1530248 C35.2220917,22.1530248 35.3253694,22.1964114 35.4107722,22.2812126 C35.4941889,22.3660138 35.5358972,22.4665919 35.5358972,22.5888634 L35.5358972,29.9310674 C35.5358972,30.4024041 35.6133556,30.7909118 35.7662861,31.0985626 C35.9192167,31.4081855 36.1078972,31.6507563 36.3343139,31.826275 C36.5607306,31.9998216 36.80105,32.1240652 37.0592444,32.1970336 C37.3154528,32.2700021 37.5478278,32.3055002 37.7563694,32.3055002 C37.962925,32.3055002 38.1953,32.2700021 38.4515083,32.1970336 C38.7097028,32.1240652 38.94605,31.9998216 39.1665083,31.826275 C39.3869667,31.6507563 39.5736611,31.4081855 39.7265917,31.0985626 C39.8795222,30.7909118 39.9549944,30.4024041 39.9549944,29.9310674 L39.9549944,22.5888634 C39.9549944,22.4665919 39.9967028,22.3660138 40.0821056,22.2812126 C40.1675083,22.1964114 40.2707861,22.1530248 40.3919389,22.1530248 L43.1347583,22.1530248 C43.2559111,22.1530248 43.3591889,22.1964114 43.4445917,22.2812126 C43.5280083,22.3660138 43.5697167,22.4665919 43.5697167,22.5888634 L43.5697167,29.9310674 C43.5697167,30.7889397 43.4346611,31.5698993 43.1605778,32.2700021 C42.8864944,32.9720769 42.4952306,33.5676572 41.9848,34.0646315 C41.4743694,34.5596337 40.8606611,34.9441972 40.143675,35.2143777 C39.4266889,35.4885024 38.6302583,35.6226066 37.7563694,35.6226066 C36.8804944,35.6226066 36.0840639,35.4885024 35.3670778,35.2143777 C34.6500917,34.9441972 34.0363833,34.5596337 33.5259528,34.0646315 C33.0155222,33.5676572 32.6222722,32.9720769 32.3402444,32.2700021 C32.0602028,31.5698993 31.921175,30.7889397 31.921175,29.9310674 L31.921175,22.5888634 Z" id="Fill-17" fill="#0A366B"></path>
                <path d="M55.723525,25.469934 L53.9995806,25.469934 C53.8764417,25.469934 53.7731639,25.5113485 53.6877611,25.5961497 C53.6023583,25.6809508 53.5586639,25.7835011 53.5586639,25.9038004 L53.5586639,28.0297461 C53.5586639,28.1500455 53.6023583,28.2525957 53.6877611,28.3354248 C53.7731639,28.420226 53.8764417,28.4636126 53.9995806,28.4636126 L55.9618583,28.4636126 C56.4266083,28.4636126 56.7662333,28.3137315 56.9807333,28.0218577 C57.1932472,27.7280117 57.3024833,27.3947234 57.3024833,27.0200205 C57.3024833,26.8267528 57.2667333,26.6394013 57.2011917,26.4520499 C57.1336639,26.2666706 57.0323722,26.1010125 56.8993028,25.9570477 C56.7622611,25.8130829 56.5974139,25.6947557 56.402775,25.6060103 C56.20615,25.5152927 55.9817194,25.469934 55.723525,25.469934 M55.5904556,31.8359384 L53.9975944,31.8359384 C53.8744556,31.8359384 53.7731639,31.8773529 53.6877611,31.9621541 C53.6023583,32.0469552 53.5586639,32.1495055 53.5586639,32.2698048 L53.5586639,34.9696376 C53.5586639,35.091909 53.5169556,35.1964314 53.4315528,35.2792605 C53.3481361,35.3640616 53.2428722,35.4054762 53.1217194,35.4054762 L50.3808861,35.4054762 C50.2577472,35.4054762 50.1544694,35.3640616 50.0690667,35.2792605 C49.98565,35.1964314 49.9439417,35.091909 49.9439417,34.9696376 L49.9439417,22.568945 C49.9439417,22.4506178 49.98565,22.3460954 50.0710528,22.2612942 C50.1564556,22.176493 50.2597333,22.1350785 50.3828722,22.1350785 L55.9698028,22.1350785 C56.6510389,22.1350785 57.2925528,22.2612942 57.8963306,22.5156977 C58.4961361,22.7701012 59.0204694,23.1211387 59.4653583,23.5668379 C59.9082611,24.0145092 60.2617889,24.5331768 60.5239556,25.126785 C60.7861222,25.7184211 60.9172056,26.3534439 60.9172056,27.0298811 C60.9172056,27.7082905 60.8079694,28.3373969 60.5875111,28.9250888 C60.3690389,29.5108085 60.0353722,30.0196156 59.5884972,30.4475657 C59.1455944,30.8755158 58.5894833,31.2147205 57.9241361,31.4632076 C57.2587889,31.7097227 56.4822194,31.8359384 55.5904556,31.8359384" id="Fill-19" fill="#0A366B"></path>
                <path d="M66.6918236,28.2624563 L68.6183514,28.2624563 C68.7633375,28.2624563 68.9142819,28.2348467 69.0731708,28.1815994 C69.2300736,28.1283522 69.3770458,28.043551 69.5081292,27.9271959 C69.6411986,27.8108408 69.7504347,27.6708202 69.8358375,27.5012179 C69.9212403,27.3316156 69.9629486,27.1324314 69.9629486,26.9036654 C69.9629486,26.781394 69.9430875,26.6413734 69.8993931,26.4776875 C69.8576847,26.3140015 69.7841986,26.158204 69.6829069,26.0043786 C69.5776431,25.8544974 69.4406014,25.7282817 69.2638375,25.6237594 C69.0870736,25.5212091 68.8745597,25.469934 68.6183514,25.469934 L66.6918236,25.469934 C66.5706708,25.469934 66.4693792,25.5133206 66.3839764,25.5961497 C66.2985736,25.6809508 66.2568653,25.7854732 66.2568653,25.9057726 L66.2568653,27.8266178 C66.2568653,27.9488892 66.2985736,28.0514395 66.3839764,28.1362406 C66.4693792,28.2210418 66.5706708,28.2624563 66.6918236,28.2624563 M65.8179347,35.4054762 L63.0830597,35.4054762 C62.9599208,35.4054762 62.8546569,35.3640616 62.7692542,35.2792605 C62.6838514,35.1964314 62.6421431,35.091909 62.6421431,34.9696376 L62.6421431,22.568945 C62.6421431,22.4506178 62.6838514,22.3460954 62.7692542,22.2612942 C62.8526708,22.176493 62.9579347,22.1350785 63.0810736,22.1350785 L68.7573792,22.1350785 C69.4644347,22.1350785 70.1158792,22.2514336 70.7117125,22.488088 C71.3075458,22.7227704 71.8159903,23.0521145 72.2370458,23.4761203 C72.6561153,23.9001262 72.9858097,24.4010448 73.2221569,24.9808481 C73.4585042,25.5626236 73.5796569,26.2015906 73.5796569,26.9036654 C73.5796569,27.290201 73.5319903,27.6727924 73.4406292,28.0553837 C73.3512542,28.4360029 73.2181847,28.7949288 73.0493653,29.1321614 C72.8785597,29.4713661 72.6779625,29.7770448 72.4455875,30.0472252 C72.2151986,30.32135 71.9530319,30.5461717 71.6610736,30.7276067 C71.5637542,30.8005752 71.5001986,30.8893206 71.4684208,30.9918709 C71.4406153,31.0944211 71.4604764,31.1930271 71.5339625,31.289661 C71.9967264,31.895102 72.4833236,32.5163199 72.9937542,33.157259 C73.5061708,33.8001702 73.9609903,34.3839178 74.3621847,34.9163903 C74.4356708,35.0130242 74.4555319,35.1195187 74.4197819,35.2339017 C74.3820458,35.3502568 74.3026014,35.4054762 74.1814486,35.4054762 L70.7851986,35.4054762 C70.6640458,35.4054762 70.5329625,35.3719501 70.3919486,35.304898 C70.2529208,35.239818 70.1456708,35.1589611 70.0721847,35.0603551 C69.6848931,34.5535202 69.2995875,34.0407689 68.9182542,33.5201291 C68.5369208,32.9994894 68.1575736,32.4749054 67.7841847,31.9424329 C67.7106986,31.845799 67.6074208,31.764942 67.4743514,31.6978899 C67.3412819,31.63281 67.2141708,31.5973118 67.0930181,31.5973118 L66.6938097,31.5973118 C66.5706708,31.5973118 66.4693792,31.6406985 66.3839764,31.7254996 C66.2985736,31.8103008 66.2568653,31.9148232 66.2568653,32.0331504 L66.2568653,34.9696376 C66.2568653,35.091909 66.2131708,35.1964314 66.1277681,35.2792605 C66.0423653,35.3640616 65.9390875,35.4054762 65.8179347,35.4054762" id="Fill-21" fill="#0A366B"></path>
                <path d="M83.1082236,17.7662404 L85.7378347,18.8883768 C85.9801403,19.0106483 86.0000014,19.1546131 85.7934458,19.3242154 L83.1817097,21.2628097 C83.0824042,21.3377503 82.9592653,21.4008581 82.8083208,21.4541054 C82.6534042,21.5093247 82.5183486,21.5369344 82.3971958,21.5369344 L80.0774181,21.5369344 C79.9562653,21.5369344 79.8768208,21.5034084 79.8390847,21.4363563 C79.8033347,21.3693042 79.8291542,21.2884472 79.9145569,21.1918134 L82.4329458,17.9476754 C82.5044458,17.8510415 82.6097097,17.7839894 82.7427792,17.7465191 C82.8778347,17.711021 82.9989875,17.7189095 83.1082236,17.7662404 M78.8718486,28.7706718 C78.8718486,29.2282037 78.9572514,29.6640423 79.1280569,30.0762154 C79.2988625,30.4864164 79.5312375,30.8492866 79.8311403,31.1628537 C80.1290569,31.478393 80.4786125,31.7288522 80.8817931,31.9162037 C81.2829875,32.1035551 81.7080153,32.1962448 82.1588625,32.1962448 C82.6097097,32.1962448 83.0347375,32.1035551 83.4379181,31.9162037 C83.8391125,31.7288522 84.1926403,31.478393 84.4965153,31.1628537 C84.8003903,30.8492866 85.0387236,30.4864164 85.2095292,30.0762154 C85.3783486,29.6640423 85.4637514,29.2282037 85.4637514,28.7706718 C85.4637514,28.3249726 85.3783486,27.8911061 85.2095292,27.4749887 C85.0387236,27.0568992 84.8003903,26.6940291 84.4965153,26.3863783 C84.1926403,26.0787275 83.8391125,25.8302404 83.4379181,25.6428889 C83.0347375,25.4555375 82.6097097,25.3628478 82.1588625,25.3628478 C81.7080153,25.3628478 81.2829875,25.4555375 80.8817931,25.6428889 C80.4786125,25.8302404 80.1290569,26.0787275 79.8311403,26.3863783 C79.5312375,26.6940291 79.2988625,27.0568992 79.1280569,27.4749887 C78.9572514,27.8911061 78.8718486,28.3249726 78.8718486,28.7706718 M75.2571264,28.7706718 C75.2571264,27.8279982 75.4398486,26.938572 75.8052931,26.1063372 C76.1707375,25.2721303 76.6632931,24.5444179 77.2829597,23.9212279 C77.9046125,23.2980379 78.6355014,22.8069799 79.4756264,22.4421376 C80.3157514,22.0812396 81.2095014,21.8998045 82.1588625,21.8998045 C83.1082236,21.8998045 84.0019736,22.0812396 84.8420986,22.4421376 C85.6822236,22.8069799 86.4150986,23.2980379 87.0427097,23.9212279 C87.6703208,24.5444179 88.1668486,25.2721303 88.5303069,26.1063372 C88.8957514,26.938572 89.0784736,27.8279982 89.0784736,28.7706718 C89.0784736,29.7133453 88.8957514,30.6027715 88.5303069,31.4369784 C88.1668486,32.2692132 87.6703208,32.9988977 87.0427097,33.6201156 C86.4150986,34.2413335 85.6822236,34.7343636 84.8420986,35.0972337 C84.0019736,35.4601039 83.1082236,35.641539 82.1588625,35.641539 C81.2095014,35.641539 80.3157514,35.4601039 79.4756264,35.0972337 C78.6355014,34.7343636 77.9046125,34.2413335 77.2829597,33.6201156 C76.6632931,32.9988977 76.1707375,32.2692132 75.8052931,31.4369784 C75.4398486,30.6027715 75.2571264,29.7133453 75.2571264,28.7706718" id="Fill-23" fill="#0A366B"></path>
                <path d="M93.8282583,28.499308 L89.2443139,22.6598597 C89.1708278,22.5632258 89.1529528,22.4567313 89.1906889,22.3344599 C89.2264389,22.2121884 89.3058833,22.1530248 89.4270361,22.1530248 L92.9325222,22.1530248 C93.053675,22.1530248 93.1827722,22.1904951 93.3158417,22.2614914 C93.4508972,22.3344599 93.5521889,22.419261 93.625675,22.5158949 L95.9097028,25.8330013 C95.9831889,25.9296352 96.0666056,25.9789382 96.1659111,25.9789382 C96.2632306,25.9789382 96.3486333,25.9296352 96.4201333,25.8330013 C96.8094111,25.2886961 97.1967028,24.7305861 97.5800222,24.156699 C97.9633417,23.582812 98.3387167,23.0306183 98.702175,22.4981459 C98.7756611,22.3995398 98.8789389,22.3186829 99.0120083,22.2516308 C99.1470639,22.1865508 99.274175,22.1530248 99.3973139,22.1530248 L102.884925,22.1530248 C103.029911,22.1530248 103.115314,22.2121884 103.139147,22.3344599 C103.162981,22.4567313 103.139147,22.5632258 103.065661,22.6598597 L98.5194528,28.499308 C98.4459667,28.5959419 98.4122028,28.7083528 98.4122028,28.8424569 C98.4122028,28.9765611 98.4459667,29.0909441 98.5194528,29.187578 L102.9743,34.8791172 C103.049772,34.9777233 103.061689,35.0901341 103.021967,35.2143777 C102.976286,35.3425655 102.894856,35.4056734 102.773703,35.4056734 L99.3059528,35.4056734 C99.1828139,35.4056734 99.0557028,35.3682031 98.9206472,35.2972067 C98.7875778,35.2242383 98.6843,35.1394371 98.6108139,35.0428032 L96.4201333,31.8716337 C96.3486333,31.7730277 96.2632306,31.7256968 96.1659111,31.7256968 C96.0666056,31.7256968 95.9831889,31.7730277 95.9097028,31.8716337 L93.7170361,35.0428032 C93.6455361,35.1394371 93.5402722,35.2242383 93.4072028,35.2972067 C93.2741333,35.3682031 93.1450361,35.4056734 93.0238833,35.4056734 L89.5561333,35.4056734 C89.4329944,35.4056734 89.35355,35.3425655 89.3178,35.2143777 C89.28205,35.0901341 89.299925,34.9777233 89.3734111,34.8791172 L93.8282583,29.187578 C93.8997583,29.0909441 93.9374944,28.9765611 93.9374944,28.8424569 C93.9374944,28.7083528 93.8997583,28.5959419 93.8282583,28.499308" id="Fill-25" fill="#0A366B"></path>
                <path d="M107.812467,35.4056734 L105.067661,35.4056734 C104.936578,35.4056734 104.829328,35.3642588 104.751869,35.2794577 C104.672425,35.1966286 104.632703,35.0921062 104.632703,34.9698348 L104.632703,22.5888634 C104.632703,22.4665919 104.672425,22.3660138 104.751869,22.2812126 C104.829328,22.1964114 104.936578,22.1530248 105.067661,22.1530248 L107.812467,22.1530248 C107.933619,22.1530248 108.034911,22.1964114 108.120314,22.2812126 C108.205717,22.3660138 108.249411,22.4665919 108.249411,22.5888634 L108.249411,34.9698348 C108.249411,35.0921062 108.205717,35.1966286 108.120314,35.2794577 C108.034911,35.3642588 107.933619,35.4056734 107.812467,35.4056734" id="Fill-27" fill="#0A366B"></path>
                <path d="M125.958968,22.5888634 L125.958968,34.9698348 C125.958968,35.0921062 125.91726,35.1966286 125.831857,35.2794577 C125.74844,35.3642588 125.645162,35.4056734 125.522024,35.4056734 L122.779204,35.4056734 C122.658051,35.4056734 122.554774,35.3642588 122.471357,35.2794577 C122.385954,35.1966286 122.344246,35.0921062 122.344246,34.9698348 L122.344246,29.1323586 C122.344246,29.0120593 122.288635,28.9469793 122.179399,28.9351466 C122.068176,28.9213417 121.976815,28.9627563 121.905315,29.0593902 L118.828829,33.973914 C118.769246,34.0705479 118.66994,34.1198509 118.536871,34.1198509 C118.401815,34.1198509 118.300524,34.0705479 118.225051,33.973914 L115.152537,29.0593902 C115.088982,28.9627563 115.003579,28.9213417 114.894343,28.9351466 C114.785107,28.9469793 114.731482,29.0120593 114.731482,29.1323586 L114.731482,34.9698348 C114.731482,35.0921062 114.687787,35.1966286 114.602385,35.2794577 C114.516982,35.3642588 114.41569,35.4056734 114.294537,35.4056734 L111.549732,35.4056734 C111.430565,35.4056734 111.327287,35.3642588 111.241885,35.2794577 C111.156482,35.1966286 111.114774,35.0921062 111.114774,34.9698348 L111.114774,22.5888634 C111.114774,22.4665919 111.156482,22.3660138 111.241885,22.2812126 C111.327287,22.1964114 111.430565,22.1530248 111.549732,22.1530248 L114.09394,22.1530248 C114.215093,22.1530248 114.342204,22.1904951 114.475274,22.2614914 C114.608343,22.3344599 114.705662,22.419261 114.765246,22.5158949 L118.280662,27.6296029 C118.354149,27.7242647 118.439551,27.7735677 118.536871,27.7735677 C118.63419,27.7735677 118.715621,27.7242647 118.775204,27.6296029 L122.288635,22.5158949 C122.360135,22.419261 122.463413,22.3344599 122.598468,22.2614914 C122.731538,22.1904951 122.856662,22.1530248 122.979801,22.1530248 L125.522024,22.1530248 C125.645162,22.1530248 125.74844,22.1964114 125.831857,22.2812126 C125.91726,22.3660138 125.958968,22.4665919 125.958968,22.5888634" id="Fill-29" fill="#0A366B"></path>
                <path d="M134.004307,30.4386911 L135.628946,30.4386911 C135.752085,30.4386911 135.839474,30.3992487 135.893099,30.3203639 C135.94871,30.2414791 135.946724,30.1487894 135.885154,30.0403228 C135.764001,29.7385884 135.617029,29.3836067 135.44821,28.9793221 C135.277404,28.5750374 135.118515,28.1963903 134.971543,27.847325 C134.923876,27.7368863 134.870251,27.683639 134.806696,27.683639 C134.747113,27.683639 134.693488,27.7368863 134.643835,27.847325 L133.730224,30.0403228 C133.682557,30.1487894 133.682557,30.2414791 133.730224,30.3203639 C133.779876,30.3992487 133.871238,30.4386911 134.004307,30.4386911 L134.004307,30.4386911 Z M132.927835,22.552182 C132.975501,22.4417432 133.056932,22.3490536 133.174113,22.2701687 C133.289307,22.1912839 133.414432,22.1538136 133.549488,22.1538136 L136.105613,22.1538136 C136.224779,22.1538136 136.345932,22.1912839 136.45914,22.2701687 C136.576321,22.3490536 136.657751,22.4417432 136.705418,22.552182 L142.038126,34.8799061 C142.085793,34.9903448 142.077849,35.1027557 142.010321,35.2250271 C141.944779,35.3453265 141.813696,35.4064622 141.619057,35.4064622 L138.49689,35.4064622 C138.361835,35.4064622 138.238696,35.3670198 138.121515,35.288135 C138.006321,35.2092502 137.918932,35.1165605 137.855376,35.0061218 L137.362821,33.9194835 C137.303238,33.8110169 137.213863,33.7163551 137.100654,33.6374703 C136.983474,33.5605576 136.864307,33.5191431 136.743154,33.5191431 L132.890099,33.5191431 C132.757029,33.5191431 132.63389,33.5605576 132.51671,33.6374703 C132.399529,33.7163551 132.318099,33.8110169 132.270432,33.9194835 L131.758015,35.0061218 C131.710349,35.1165605 131.628918,35.2092502 131.511738,35.288135 C131.396543,35.3670198 131.277376,35.4064622 131.156224,35.4064622 L128.014196,35.4064622 C127.954613,35.4064622 127.891057,35.3946295 127.825515,35.3689919 C127.756001,35.3453265 127.702376,35.3098283 127.660668,35.2605253 C127.616974,35.2131944 127.591154,35.1520587 127.577251,35.0810624 C127.565335,35.0061218 127.585196,34.9213206 127.632863,34.8266588 L132.927835,22.552182 Z" id="Fill-31" fill="#0A366B"></path>
                <path d="M33.3195958,51.6101916 C32.9660681,52.1761902 32.5767903,52.6909136 32.1497764,53.1543618 C31.7247486,53.6178101 31.2460958,54.0102621 30.7158042,54.3356619 C30.1874986,54.6610618 29.6015958,54.9134932 28.9561097,55.0929561 C28.3106236,55.2724191 27.5976097,55.3631366 26.8210403,55.3631366 C25.8438736,55.3631366 24.9322486,55.1817015 24.0821931,54.8188314 C23.2281653,54.4559613 22.4833736,53.9668754 21.8438458,53.3515739 C21.2043181,52.7343002 20.7018319,52.0085599 20.3383736,51.174353 C19.9709431,50.3401461 19.7902069,49.452692 19.7902069,48.5100185 C19.7902069,47.567345 19.9709431,46.6779187 20.3383736,45.8437118 C20.7018319,45.0095049 21.2043181,44.2857368 21.8438458,43.6704352 C22.4833736,43.0531616 23.2281653,42.5621036 24.0821931,42.2012056 C24.9322486,41.8383354 25.8438736,41.6569004 26.8210403,41.6569004 C27.6234292,41.6569004 28.3463736,41.7476179 28.9918597,41.929053 C29.6373458,42.110488 30.2212625,42.3648916 30.7455958,42.6902914 C31.2679431,43.0176634 31.7406375,43.4120875 32.1597069,43.8775079 C32.5807625,44.3429282 32.9660681,44.8537074 33.3195958,45.4078732 C33.3791792,45.5064792 33.3930819,45.6090295 33.3573319,45.7174961 C33.3195958,45.8259627 33.2461097,45.9048475 33.1368736,45.9541506 L30.5449986,46.9678204 C30.4218597,47.0171234 30.2987208,47.0171234 30.1795542,46.9678204 C30.0564153,46.9204895 29.9670403,46.8475211 29.9054708,46.7508872 C29.5519431,46.1947492 29.1269153,45.7687712 28.6284014,45.4729532 C28.1279014,45.1771351 27.5261097,45.0292261 26.8210403,45.0292261 C26.3562903,45.0292261 25.9213319,45.12586 25.5141792,45.3210999 C25.1050403,45.5123956 24.7515125,45.7707434 24.4456514,46.092199 C24.1417764,46.4136546 23.9034431,46.7863853 23.7346236,47.2103912 C23.5638181,47.6343971 23.4784153,48.0702357 23.4784153,48.5198791 C23.4784153,48.9793831 23.5638181,49.419166 23.7346236,49.8372555 C23.9034431,50.255345 24.1417764,50.6221594 24.4456514,50.9357265 C24.7515125,51.2512657 25.1050403,51.5056693 25.5141792,51.7009092 C25.9213319,51.894177 26.3562903,51.9908109 26.8210403,51.9908109 C27.4883736,51.9908109 28.0941375,51.8310691 28.6363458,51.5096135 C29.1765681,51.19013 29.6075542,50.7759847 29.9233458,50.2671777 C29.9829292,50.1725159 30.0723042,50.0995475 30.1874986,50.0502445 C30.3026931,50.0029136 30.4218597,50.0029136 30.5449986,50.0502445 L33.1368736,51.0678585 C33.2461097,51.1151894 33.3195958,51.19013 33.3573319,51.2926803 C33.3930819,51.3972026 33.3791792,51.4997529 33.3195958,51.6101916" id="Fill-33" fill="#0A366B"></path>
                <path d="M37.9881486,48.4920722 C37.9881486,48.9496041 38.0735514,49.3854427 38.2443569,49.7976158 C38.4151625,50.2078169 38.6475375,50.570687 38.9454542,50.8842541 C39.2453569,51.1997934 39.5949125,51.4502527 39.9980931,51.6376041 C40.3992875,51.8229834 40.8243153,51.9176452 41.2751625,51.9176452 C41.7260097,51.9176452 42.1510375,51.8229834 42.5542181,51.6376041 C42.9554125,51.4502527 43.3089403,51.1997934 43.6128153,50.8842541 C43.9147042,50.570687 44.1530375,50.2078169 44.3238431,49.7976158 C44.4926625,49.3854427 44.5780653,48.9496041 44.5780653,48.4920722 C44.5780653,48.0444009 44.4926625,47.6125065 44.3238431,47.1963891 C44.1530375,46.7782996 43.9147042,46.4154295 43.6128153,46.1077787 C43.3089403,45.800128 42.9554125,45.5516408 42.5542181,45.3642894 C42.1510375,45.1769379 41.7260097,45.0822762 41.2751625,45.0822762 C40.8243153,45.0822762 40.3992875,45.1769379 39.9980931,45.3642894 C39.5949125,45.5516408 39.2453569,45.800128 38.9454542,46.1077787 C38.6475375,46.4154295 38.4151625,46.7782996 38.2443569,47.1963891 C38.0735514,47.6125065 37.9881486,48.0444009 37.9881486,48.4920722 M34.3734264,48.4920722 C34.3734264,47.5474266 34.5541625,46.6599724 34.9215931,45.8257655 C35.2870375,44.9935307 35.7795931,44.2638462 36.3992597,43.6426283 C37.0209125,43.0194383 37.7518014,42.5283803 38.5919264,42.1635381 C39.4320514,41.8006679 40.3258014,41.621205 41.2751625,41.621205 C42.2245236,41.621205 43.1182736,41.8006679 43.9583986,42.1635381 C44.7985236,42.5283803 45.5313986,43.0194383 46.1590097,43.6426283 C46.7866208,44.2638462 47.2831486,44.9935307 47.6466069,45.8257655 C48.0120514,46.6599724 48.1947736,47.5474266 48.1947736,48.4920722 C48.1947736,49.4347457 48.0120514,50.324172 47.6466069,51.1583789 C47.2831486,51.9906136 46.7866208,52.7202982 46.1590097,53.3415161 C45.5313986,53.962734 44.7985236,54.455764 43.9583986,54.8186342 C43.1182736,55.1815043 42.2245236,55.3629394 41.2751625,55.3629394 C40.3258014,55.3629394 39.4320514,55.1815043 38.5919264,54.8186342 C37.7518014,54.455764 37.0209125,53.962734 36.3992597,53.3415161 C35.7795931,52.7202982 35.2870375,51.9906136 34.9215931,51.1583789 C34.5541625,50.324172 34.3734264,49.4347457 34.3734264,48.4920722" id="Fill-35" fill="#0A366B"></path>
                <path d="M62.9076861,42.2907398 L62.9076861,54.6914324 C62.9076861,54.8137039 62.8659778,54.9162541 62.780575,54.9990832 C62.6951722,55.0838844 62.5918944,55.127271 62.4707417,55.127271 L59.7736028,55.127271 C59.6504639,55.127271 59.5253389,55.0898007 59.3902833,55.0188044 C59.2572139,54.945836 59.1539361,54.8610348 59.08045,54.7644009 L54.3257,48.1104669 C54.2542,48.013833 54.1767417,47.9743906 54.0972972,47.9941118 C54.0178528,48.0098888 53.9801167,48.0808851 53.9801167,48.2011844 L53.9801167,54.6914324 C53.9801167,54.8137039 53.9344361,54.9162541 53.8490333,54.9990832 C53.7636306,55.0838844 53.6623389,55.127271 53.5392,55.127271 L50.804325,55.127271 C50.6831722,55.127271 50.5779083,55.0838844 50.4925056,54.9990832 C50.4071028,54.9162541 50.3653944,54.8137039 50.3653944,54.6914324 L50.3653944,42.2907398 C50.3653944,42.1704405 50.4071028,42.0678902 50.4925056,41.9830891 C50.5759222,41.8982879 50.6811861,41.8549012 50.8023389,41.8549012 L53.5411861,41.8549012 C53.6623389,41.8549012 53.78945,41.8903994 53.9245056,41.9554794 C54.057575,42.0225315 54.1628389,42.1033884 54.236325,42.2000223 L58.9811444,48.8539563 C59.0566167,48.9505902 59.1320889,48.9920047 59.2115333,48.9821441 C59.2909778,48.9703114 59.3287139,48.9032593 59.3287139,48.7809878 L59.3287139,42.2907398 C59.3287139,42.1704405 59.3724083,42.0678902 59.4578111,41.9830891 C59.5432139,41.8982879 59.6445056,41.8549012 59.7676444,41.8549012 L62.4687556,41.8549012 C62.5918944,41.8549012 62.6951722,41.8982879 62.780575,41.9830891 C62.8659778,42.0678902 62.9076861,42.1704405 62.9076861,42.2907398" id="Fill-37" fill="#0A366B"></path>
                <g id="Group-41" transform="translate(63.555556, 41.558886)">
                    <mask id="mask-2" fill="white">
                        <use xlink:href="#path-1"></use>
                    </mask>
                    <g id="Clip-40"></g>
                    <path d="M3.84034444,9.01712575 C4.49774722,9.44113162 5.14720556,9.77441996 5.79269167,10.0150186 C6.44016389,10.2575894 7.03996944,10.3759167 7.60203889,10.3759167 C8.13630278,10.3759167 8.54345556,10.3009761 8.82548333,10.1510949 C9.10353889,9.99924167 9.24455278,9.77441996 9.24455278,9.47071343 C9.24455278,9.3129438 9.18298333,9.19067234 9.06183056,9.09995481 C8.93869167,9.00923727 8.77781667,8.9342967 8.57920556,8.87316097 C8.37662222,8.81202524 8.14226111,8.76469435 7.87413611,8.72919618 C7.60601111,8.6917259 7.33391389,8.64439501 7.05387222,8.58128716 C6.78376111,8.53395627 6.47194167,8.4787369 6.11444167,8.40971269 C5.75495556,8.34463272 5.38553889,8.24602671 5.00817778,8.11981101 C4.63081667,7.99162318 4.25742778,7.83188144 3.88403889,7.64058577 C3.51462222,7.44731798 3.18294167,7.19883081 2.88899722,6.8970964 C2.599025,6.59338988 2.36466389,6.23446398 2.1879,5.81834659 C2.01113611,5.40025708 1.92176111,4.90919912 1.92176111,4.34122847 C1.92176111,3.50702157 2.08660833,2.81677946 2.41431667,2.27247425 C2.74401111,1.73014116 3.16109444,1.29824681 3.66556667,0.976791196 C4.172025,0.657307704 4.73409444,0.432485987 5.35574722,0.306270286 C5.97541389,0.180054585 6.57919167,0.114974615 7.16310833,0.114974615 C8.18595556,0.114974615 9.09956667,0.264855759 9.91188611,0.560673808 C10.7202333,0.856491856 11.4948167,1.28838621 12.2396083,1.85635686 C12.3349417,1.94115803 12.3905528,2.04370829 12.4044556,2.16400763 C12.4143861,2.28627909 12.3845944,2.39474571 12.3130944,2.48940748 L10.8870667,4.50294233 C10.8155667,4.60154835 10.7162611,4.66071196 10.5951083,4.6843774 C10.4739556,4.70804285 10.3647194,4.6843774 10.2654139,4.61338107 C9.64574722,4.22487337 9.06778889,3.95074864 8.53153889,3.78706266 C7.997275,3.62534879 7.50471944,3.54251974 7.05387222,3.54251974 C6.91881667,3.54251974 6.7639,3.54646398 6.58713611,3.55238034 C6.41037222,3.55632458 6.24353889,3.58196214 6.08663611,3.62534879 C5.92774722,3.66676332 5.79467778,3.73578753 5.69338611,3.83242142 C5.59010833,3.92905532 5.53648333,4.06118738 5.53648333,4.23078973 C5.53648333,4.40039208 5.66558056,4.55027322 5.92178889,4.6843774 C6.17799722,4.81848158 6.46796944,4.93286456 6.79766389,5.02949846 C7.12537222,5.12613236 7.44116389,5.20107293 7.747025,5.2562923 C8.0509,5.30953955 8.247525,5.34503771 8.33292778,5.35687043 C8.76788611,5.44167161 9.25051111,5.56394307 9.77285833,5.72762905 C10.2971917,5.88934292 10.7877611,6.13191372 11.2445667,6.45139721 C11.6993861,6.77285282 12.0827056,7.18897021 12.394525,7.70369362 C12.7043583,8.21841702 12.859275,8.86132825 12.859275,9.63242729 C12.859275,10.3601397 12.7321639,10.9853018 12.4759556,11.511858 C12.2217333,12.036442 11.8642333,12.4683363 11.4094139,12.807541 C10.9506222,13.1467457 10.4044417,13.397205 9.76292778,13.560891 C9.12538611,13.7226048 8.41634444,13.8054339 7.63778889,13.8054339 C7.00421944,13.8054339 6.41434444,13.7521866 5.86816389,13.6516085 C5.31801111,13.5470861 4.80758056,13.4070656 4.3329,13.2236584 C3.85821944,13.0422233 3.41730278,12.8292343 3.00816389,12.5807472 C2.60101111,12.3342321 2.22762222,12.069968 1.88601111,11.791899 C1.78869167,11.7189306 1.73308056,11.6183525 1.72315,11.4921368 C1.70924722,11.3639489 1.73903889,11.2554823 1.812525,11.1568763 L3.22067778,9.14334145 C3.29217778,9.04867968 3.38751111,8.98754395 3.51065,8.9638785 C3.63378889,8.94021306 3.74103889,8.95796214 3.84034444,9.01712575" id="Fill-39" fill="#0A366B" mask="url(#mask-2)"></path>
                </g>
                <path d="M78.4531764,42.3100666 C78.4531764,42.1877952 78.4948847,42.087217 78.5802875,42.0024158 C78.6637042,41.9176147 78.7689681,41.874228 78.8901208,41.874228 L81.6349264,41.874228 C81.7540931,41.874228 81.8573708,41.9176147 81.9427736,42.0024158 C82.0261903,42.087217 82.0678986,42.1877952 82.0678986,42.3100666 L82.0678986,49.6522706 C82.0678986,50.1236073 82.1453569,50.512115 82.2982875,50.8197658 C82.4512181,51.1293887 82.6398986,51.3719595 82.8663153,51.5474782 C83.0927319,51.7210248 83.3330514,51.8452684 83.5912458,51.9182368 C83.8474542,51.9912053 84.0798292,52.0267034 84.2883708,52.0267034 C84.4949264,52.0267034 84.7273014,51.9912053 84.9835097,51.9182368 C85.2417042,51.8452684 85.4780514,51.7210248 85.6985097,51.5474782 C85.9189681,51.3719595 86.1056625,51.1293887 86.2585931,50.8197658 C86.4115236,50.512115 86.4869958,50.1236073 86.4869958,49.6522706 L86.4869958,42.3100666 C86.4869958,42.1877952 86.5287042,42.087217 86.6141069,42.0024158 C86.6995097,41.9176147 86.8027875,41.874228 86.9239403,41.874228 L89.6667597,41.874228 C89.7879125,41.874228 89.8911903,41.9176147 89.9765931,42.0024158 C90.0600097,42.087217 90.1017181,42.1877952 90.1017181,42.3100666 L90.1017181,49.6522706 C90.1017181,50.5101429 89.9666625,51.2911026 89.6925792,51.9912053 C89.4184958,52.6932801 89.0272319,53.2888605 88.5168014,53.7858348 C88.0063708,54.280837 87.3926625,54.6654004 86.6756764,54.9355809 C85.9586903,55.2097056 85.1622597,55.3438098 84.2883708,55.3438098 C83.4124958,55.3438098 82.6160653,55.2097056 81.8990792,54.9355809 C81.1820931,54.6654004 80.5683847,54.280837 80.0579542,53.7858348 C79.5475236,53.2888605 79.1542736,52.6932801 78.8722458,51.9912053 C78.5922042,51.2911026 78.4531764,50.5101429 78.4531764,49.6522706 L78.4531764,42.3100666 Z" id="Fill-42" fill="#0A366B"></path>
                <path d="M103.01581,52.2264792 L103.01581,54.6916296 C103.01581,54.8139011 102.974101,54.9164514 102.888699,54.9992804 C102.803296,55.0840816 102.700018,55.1274682 102.576879,55.1274682 L93.4665875,55.1274682 C93.3335181,55.1274682 93.2262681,55.0840816 93.1468236,54.9992804 C93.0673792,54.9164514 93.0296431,54.8139011 93.0296431,54.6916296 L93.0296431,42.2909371 C93.0296431,42.1706377 93.0673792,42.0680875 93.1468236,41.9832863 C93.2262681,41.8984851 93.3335181,41.8550985 93.4665875,41.8550985 L96.2054347,41.8550985 C96.3285736,41.8550985 96.4318514,41.8984851 96.5172542,41.9832863 C96.6026569,42.0680875 96.6443653,42.1706377 96.6443653,42.2909371 L96.6443653,51.3567742 C96.6443653,51.4770735 96.6840875,51.5796238 96.7635319,51.6644249 C96.8429764,51.7492261 96.9482403,51.7906406 97.0832958,51.7906406 L102.576879,51.7906406 C102.700018,51.7906406 102.803296,51.8340273 102.888699,51.9188285 C102.974101,52.0036296 103.01581,52.1042078 103.01581,52.2264792" id="Fill-44" fill="#0A366B"></path>
                <path d="M112.618657,45.1911372 L110.062532,45.1911372 C109.939393,45.1911372 109.838101,45.2345238 109.752699,45.3173529 C109.667296,45.4021541 109.623601,45.5066764 109.623601,45.6269758 L109.623601,54.6908408 C109.623601,54.8131123 109.585865,54.9176346 109.506421,55.0004637 C109.426976,55.0852649 109.319726,55.1266794 109.184671,55.1266794 L106.44781,55.1266794 C106.324671,55.1266794 106.221393,55.0852649 106.13599,55.0004637 C106.050588,54.9176346 106.008879,54.8131123 106.008879,54.6908408 L106.008879,45.6269758 C106.008879,45.5066764 105.969157,45.4021541 105.889713,45.3173529 C105.810268,45.2345238 105.705004,45.1911372 105.569949,45.1911372 L102.978074,45.1911372 C102.856921,45.1911372 102.751657,45.1497227 102.666254,45.0668936 C102.580851,44.9820924 102.541129,44.8775701 102.541129,44.7572707 L102.541129,42.2901482 C102.541129,42.171821 102.580851,42.0672986 102.666254,41.9824974 C102.751657,41.8976963 102.856921,41.8562817 102.978074,41.8562817 L112.618657,41.8562817 C112.751726,41.8562817 112.858976,41.8976963 112.938421,41.9824974 C113.015879,42.0672986 113.057588,42.171821 113.057588,42.2901482 L113.057588,44.7572707 C113.057588,44.8775701 113.015879,44.9820924 112.938421,45.0668936 C112.858976,45.1497227 112.751726,45.1911372 112.618657,45.1911372" id="Fill-46" fill="#0A366B"></path>
                <path d="M118.873715,50.1598944 L120.498354,50.1598944 C120.621493,50.1598944 120.708882,50.1204519 120.762507,50.0415671 C120.818118,49.9626823 120.816132,49.8699927 120.754563,49.761526 C120.63341,49.4597916 120.486438,49.10481 120.317618,48.7005253 C120.146813,48.2962406 119.987924,47.9175935 119.840951,47.5685282 C119.793285,47.4580895 119.73966,47.4048423 119.676104,47.4048423 C119.616521,47.4048423 119.562896,47.4580895 119.513243,47.5685282 L118.599632,49.761526 C118.551965,49.8699927 118.551965,49.9626823 118.599632,50.0415671 C118.649285,50.1204519 118.740646,50.1598944 118.873715,50.1598944 L118.873715,50.1598944 Z M117.797243,42.2733852 C117.84491,42.1629464 117.92634,42.0702568 118.043521,41.991372 C118.158715,41.9124872 118.28384,41.8750169 118.418896,41.8750169 L120.975021,41.8750169 C121.094188,41.8750169 121.21534,41.9124872 121.328549,41.991372 C121.445729,42.0702568 121.52716,42.1629464 121.574826,42.2733852 L126.907535,54.6011093 C126.955201,54.7115481 126.947257,54.8239589 126.879729,54.9462304 C126.814188,55.0665297 126.683104,55.1276654 126.488465,55.1276654 L123.366299,55.1276654 C123.231243,55.1276654 123.108104,55.088223 122.990924,55.0093382 C122.875729,54.9304534 122.78834,54.8377638 122.724785,54.727325 L122.232229,53.6406867 C122.172646,53.5322201 122.083271,53.4375583 121.970063,53.3586735 C121.852882,53.2817608 121.733715,53.2403463 121.612563,53.2403463 L117.759507,53.2403463 C117.626438,53.2403463 117.503299,53.2817608 117.386118,53.3586735 C117.268938,53.4375583 117.187507,53.5322201 117.13984,53.6406867 L116.627424,54.727325 C116.579757,54.8377638 116.498326,54.9304534 116.381146,55.0093382 C116.265951,55.088223 116.146785,55.1276654 116.025632,55.1276654 L112.883604,55.1276654 C112.824021,55.1276654 112.760465,55.1158327 112.694924,55.0901952 C112.62541,55.0665297 112.571785,55.0310315 112.530076,54.9817285 C112.486382,54.9343977 112.460563,54.8732619 112.44666,54.8022656 C112.434743,54.727325 112.454604,54.6425238 112.502271,54.5478621 L117.797243,42.2733852 Z" id="Fill-48" fill="#0A366B"></path>
                <g id="Group-52" transform="translate(0.000000, 19.865562)">
                    <mask id="mask-4" fill="white">
                        <use xlink:href="#path-3"></use>
                    </mask>
                    <g id="Clip-51"></g>
                    <path d="M14.1025806,8.74556478 C14.1025806,12.6128927 10.9446639,15.7465919 7.05188611,15.7465919 C3.15712222,15.7465919 -0.000794444444,12.6128927 -0.000794444444,8.74556478 C-0.000794444444,4.87823683 3.15712222,1.74453764 7.05188611,1.74453764 C10.9446639,1.74453764 14.1025806,4.87823683 14.1025806,8.74556478" id="Fill-50" fill="#00B3CA" mask="url(#mask-4)"></path>
                </g>
                <g id="Group-55" transform="translate(0.000000, 0.144359)">
                    <mask id="mask-6" fill="white">
                        <use xlink:href="#path-5"></use>
                    </mask>
                    <g id="Clip-54"></g>
                    <path d="M14.1025806,8.82839384 C14.1025806,12.6957218 10.9446639,15.8313931 7.05188611,15.8313931 C3.15712222,15.8313931 -0.000794444444,12.6957218 -0.000794444444,8.82839384 C-0.000794444444,4.963038 3.15712222,1.82736669 7.05188611,1.82736669 C10.9446639,1.82736669 14.1025806,4.963038 14.1025806,8.82839384" id="Fill-53" fill="#00B3CA" mask="url(#mask-6)"></path>
                </g>
                <path d="M0,48.2495014 C0,48.3500795 0.00993055556,48.4467134 0.0158888889,48.5453194 L0.0158888889,55.2209467 L6.45486111,55.2209467 C6.65148611,55.2367237 6.85009722,55.2505285 7.05069444,55.2505285 C10.9454583,55.2505285 14.103375,52.1168293 14.103375,48.2495014 C14.103375,44.3821734 10.9454583,41.2465021 7.05069444,41.2465021 C3.15593056,41.2465021 0,44.3821734 0,48.2495014" id="Fill-56" fill="#00B3CA"></path>
            </g>
        </g>
    </g>
</svg>